<svg xmlns="http://www.w3.org/2000/svg" version="1.1" xmlns:xlink="http://www.w3.org/1999/xlink" xmlns:svgjs="http://svgjs.dev/svgjs" width="1000" height="181" viewBox="0 0 1000 181"><g transform="matrix(1,0,0,1,-0.6060442174393756,0.23443246923147854)"><svg viewBox="0 0 396 72" data-background-color="#e6b17e" preserveAspectRatio="xMidYMid meet" height="181" width="1000" xmlns="http://www.w3.org/2000/svg" xmlns:xlink="http://www.w3.org/1999/xlink"><g id="tight-bounds" transform="matrix(1,0,0,1,0.23999351010598957,-0.09325490488765809)"><svg viewBox="0 0 395.52 72.18650980977533" height="72.18650980977533" width="395.52"><g><svg viewBox="0 0 517.9434507405896 94.53006166007903" height="72.18650980977533" width="395.52"><g><rect width="8.482406483113992" height="94.53006166007903" x="91.73579168387882" y="0" fill="#551e19" opacity="1" stroke-width="0" stroke="transparent" fill-opacity="1" class="rect-o-0" data-fill-palette-color="primary" rx="1%" id="o-0" data-palette-color="#551e19"></rect></g><g transform="matrix(1,0,0,1,122.42345074058964,0.23514940711461918)"><svg viewBox="0 0 395.52 94.05976284584979" height="94.05976284584979" width="395.52"><g id="textblocktransform"><svg viewBox="0 0 395.52 94.05976284584979" height="94.05976284584979" width="395.52" id="textblock"><g><svg viewBox="0 0 395.52 94.05976284584979" height="94.05976284584979" width="395.52"><g transform="matrix(1,0,0,1,0,0)"><svg width="395.52" viewBox="4.300000190734863 -35.5 151.7899932861328 36.099998474121094" height="94.05976284584979" data-palette-color="#551e19"><path d="M25.1 0L13.7-19.3 9.85-26.7 9.7-26.7 9.7 0 4.3 0 4.3-34.9 10.6-34.9 22-15.6 25.85-8.2 26-8.2 26-34.9 31.4-34.9 31.4 0 25.1 0ZM53.5 0.6L53.5 0.6Q50.1 0.6 47.32-0.58 44.55-1.75 42.57-4.03 40.6-6.3 39.52-9.68 38.45-13.05 38.45-17.45L38.45-17.45Q38.45-21.85 39.52-25.23 40.6-28.6 42.57-30.88 44.55-33.15 47.32-34.33 50.1-35.5 53.5-35.5L53.5-35.5Q56.9-35.5 59.67-34.33 62.45-33.15 64.42-30.88 66.4-28.6 67.47-25.23 68.55-21.85 68.55-17.45L68.55-17.45Q68.55-13.05 67.47-9.68 66.4-6.3 64.42-4.03 62.45-1.75 59.67-0.58 56.9 0.6 53.5 0.6ZM53.5-4.45L53.5-4.45Q55.5-4.45 57.17-5.15 58.85-5.85 60.02-7.18 61.2-8.5 61.85-10.4 62.5-12.3 62.5-14.7L62.5-14.7 62.5-20.2Q62.5-22.6 61.85-24.5 61.2-26.4 60.02-27.73 58.85-29.05 57.17-29.75 55.5-30.45 53.5-30.45L53.5-30.45Q51.45-30.45 49.8-29.75 48.15-29.05 46.97-27.73 45.8-26.4 45.15-24.5 44.5-22.6 44.5-20.2L44.5-20.2 44.5-14.7Q44.5-12.3 45.15-10.4 45.8-8.5 46.97-7.18 48.15-5.85 49.8-5.15 51.45-4.45 53.5-4.45ZM97.85-29.9L87.45-29.9 87.45 0 81.8 0 81.8-29.9 71.4-29.9 71.4-34.9 97.85-34.9 97.85-29.9ZM125.69 0L103.34 0 103.34-34.9 125.69-34.9 125.69-29.9 108.99-29.9 108.99-20.2 124.14-20.2 124.14-15.2 108.99-15.2 108.99-5 125.69-5 125.69 0ZM143.44 0.6L143.44 0.6Q139.04 0.6 135.97-1 132.89-2.6 130.69-5.3L130.69-5.3 134.59-8.95Q136.44-6.7 138.67-5.55 140.89-4.4 143.74-4.4L143.74-4.4Q147.09-4.4 148.79-5.9 150.49-7.4 150.49-9.95L150.49-9.95Q150.49-12 149.29-13.2 148.09-14.4 145.04-15L145.04-15 141.94-15.55Q136.84-16.5 134.29-18.9 131.74-21.3 131.74-25.5L131.74-25.5Q131.74-27.8 132.62-29.68 133.49-31.55 135.07-32.83 136.64-34.1 138.89-34.8 141.14-35.5 143.94-35.5L143.94-35.5Q147.89-35.5 150.79-34.13 153.69-32.75 155.74-30.15L155.74-30.15 151.79-26.65Q150.44-28.4 148.49-29.45 146.54-30.5 143.64-30.5L143.64-30.5Q140.64-30.5 138.99-29.3 137.34-28.1 137.34-25.8L137.34-25.8Q137.34-23.6 138.69-22.53 140.04-21.45 142.89-20.9L142.89-20.9 145.99-20.25Q151.24-19.25 153.67-16.85 156.09-14.45 156.09-10.25L156.09-10.25Q156.09-7.8 155.24-5.8 154.39-3.8 152.77-2.38 151.14-0.95 148.79-0.18 146.44 0.6 143.44 0.6Z" opacity="1" transform="matrix(1,0,0,1,0,0)" fill="#551e19" class="wordmark-text-0" data-fill-palette-color="primary" id="text-0"></path></svg></g></svg></g></svg></g></svg></g><g transform="matrix(1,0,0,1,0,0.23514940711461918)"><svg viewBox="0 0 69.53053911028198 94.05976284584979" height="94.05976284584979" width="69.53053911028198"><g><svg xmlns="http://www.w3.org/2000/svg" xmlns:xlink="http://www.w3.org/1999/xlink" version="1.1" x="0" y="0" viewBox="13.408767700195312 0.44699978828430176 73.59123229980469 99.5530014038086" enable-background="new 0 0 100 100" xml:space="preserve" width="69.53053911028198" height="94.05976284584979" class="icon-icon-0" data-fill-palette-color="accent" id="icon-0"><g fill="#c56e33" data-fill-palette-color="accent"><path d="M73.626 28H44.794l-1.808-4.202c0.841-1.525 1.419-3.164 1.723-4.919 1.473-8.569-4.298-16.731-12.861-18.205-0.889-0.153-1.794-0.227-2.688-0.227-7.688 0-14.214 5.511-15.519 13.101-0.714 4.15 0.231 8.331 2.661 11.771 1.376 1.947 3.174 3.509 5.19 4.64C17.593 32.292 15 36.545 15 41.412v45.336C15 94.108 20.928 100 28.29 100h36.472c0.645 0 1.262-0.209 1.715-0.666 0.176-0.178 0.312-0.361 0.424-0.58l18.785-18.915C86.458 79.436 87 78.649 87 77.718V41.412C87 34.049 80.989 28 73.626 28zM20 41.412c0-4.7 3.59-8.412 8.29-8.412h3.479l14.694 14.049C47.096 47.8 48 48.102 49 48.102v0.042c1 0 1.842-0.462 2.372-1.271 0.346-0.526 0.801-1.578 0.119-3.146L46.857 33h26.769C78.327 33 83 36.711 83 41.412v33.912l-7.059 0.052c-3.562 0.028-7.116 1.442-9.617 3.982-2.501 2.541-3.969 5.769-3.94 9.333L62.329 95H28.29c-4.7 0-8.29-3.555-8.29-8.252V41.412zM20.246 22.533c-1.687-2.386-2.343-5.287-1.848-8.166 0.906-5.266 5.431-9.088 10.761-9.088 0.622 0 1.251 0.054 1.87 0.16 5.94 1.022 9.943 6.691 8.922 12.633-0.266 1.534-0.831 2.955-1.678 4.221-0.455 0.679-0.535 1.541-0.215 2.292l5.558 13.006-10.362-9.978c-0.454-0.437-1.056-0.675-1.675-0.675-0.146 0-0.292 0.013-0.439 0.041-1.252 0.232-2.547 0.239-3.82 0.018C24.443 26.504 21.931 24.919 20.246 22.533z" fill="#c56e33" data-fill-palette-color="accent"></path><path d="M27.041 57h47.057c1.266 0 2.291-1.235 2.291-2.5S75.363 52 74.098 52H27.041c-1.265 0-2.29 1.235-2.29 2.5S25.776 57 27.041 57z" fill="#c56e33" data-fill-palette-color="accent"></path><path d="M27.041 70h47.057c1.266 0 2.291-1.235 2.291-2.5S75.363 65 74.098 65H27.041c-1.265 0-2.29 1.235-2.29 2.5S25.776 70 27.041 70z" fill="#c56e33" data-fill-palette-color="accent"></path><path d="M27.041 83h28.057c1.266 0 2.291-1.235 2.291-2.5S56.363 78 55.098 78H27.041c-1.265 0-2.29 1.235-2.29 2.5S25.776 83 27.041 83z" fill="#c56e33" data-fill-palette-color="accent"></path></g></svg></g></svg></g></svg></g><defs></defs></svg><rect width="395.52" height="72.18650980977533" fill="none" stroke="none" visibility="hidden"></rect></g></svg></g></svg>